<?xml version="1.0" standalone="no"?>
<!DOCTYPE svg PUBLIC "-//W3C//DTD SVG 20010904//EN"
 "http://www.w3.org/TR/2001/REC-SVG-20010904/DTD/svg10.dtd">
<svg version="1.0" xmlns="http://www.w3.org/2000/svg"
 width="220.000000pt" height="72.000000pt" viewBox="0 0 220.000000 72.000000"
 preserveAspectRatio="xMidYMid meet">
<metadata>
Created by potrace 1.10, written by Peter Selinger 2001-2011
</metadata>
<g transform="translate(0.000000,72.000000) scale(0.100000,-0.100000)"
fill="#000000" stroke="none">
<path d="M415 658 c-30 -17 -44 -40 -45 -70 0 -34 -17 -29 -45 11 -38 58 -88
65 -140 20 -28 -25 -35 -38 -35 -68 0 -20 7 -45 15 -55 19 -25 11 -36 -29 -36
-36 0 -66 -18 -69 -40 -2 -8 -5 -19 -8 -25 -3 -5 -4 -16 -3 -22 1 -7 2 -17 3
-23 0 -5 15 -23 31 -40 26 -27 30 -36 24 -66 -4 -22 -2 -34 5 -34 6 0 11 -6
11 -14 0 -17 20 -24 69 -28 27 -2 39 -10 53 -35 21 -34 42 -45 96 -48 27 -2
41 5 68 33 26 27 37 33 46 24 15 -15 53 -15 79 -2 11 6 30 28 44 48 14 20 35
49 47 64 18 24 20 31 10 53 -10 21 -9 30 3 48 8 12 15 32 15 46 0 28 -34 87
-55 95 -8 3 -12 14 -10 26 6 32 -11 67 -37 75 -13 4 -40 23 -61 41 -40 37 -51
40 -82 22z m53 -34 c30 -21 28 -39 -7 -65 -25 -19 -29 -26 -24 -56 6 -38 -6
-53 -45 -53 -14 0 -26 9 -34 25 -15 34 -42 40 -85 20 -34 -16 -37 -16 -62 3
-37 27 -36 77 2 106 26 19 30 19 54 6 14 -8 29 -22 33 -30 26 -57 33 -61 94
-48 23 5 32 23 17 33 -16 9 -13 41 5 59 19 20 24 20 52 0z m100 -83 c4 -29
-15 -43 -40 -30 -21 11 -24 45 -5 52 24 10 42 2 45 -22z m-70 -43 c7 -10 2
-23 -20 -48 -17 -19 -25 -25 -19 -13 6 12 11 33 11 47 0 28 11 33 28 14z
m-251 -46 c16 3 36 9 46 13 25 10 22 -17 -3 -33 -11 -7 -29 -27 -40 -45 l-20
-32 0 28 c0 16 -10 43 -22 60 -15 22 -17 28 -5 18 9 -7 29 -11 44 -9z m363 -2
c24 -24 26 -67 3 -92 -20 -22 -76 -24 -93 -3 -15 18 -54 20 -67 3 -6 -7 -13
-23 -16 -36 -7 -30 26 -66 53 -57 25 8 57 -10 65 -35 9 -29 -20 -70 -49 -70
-31 0 -60 33 -53 60 9 36 -24 59 -73 53 -51 -7 -86 10 -99 49 -12 35 -1 70 31
92 33 23 72 20 108 -10 27 -23 35 -25 56 -16 13 7 24 20 24 31 0 24 36 51 67
51 13 0 32 -9 43 -20z m-418 -27 c24 -21 23 -64 -2 -96 -11 -14 -20 -27 -20
-30 0 -3 17 -24 38 -46 40 -44 64 -50 88 -26 22 21 70 19 94 -5 42 -42 13
-110 -46 -110 -36 0 -74 28 -74 54 0 22 -20 31 -69 31 -53 0 -74 22 -53 56 16
25 7 56 -19 64 -47 15 -61 91 -20 115 25 15 63 12 83 -7z m66 -121 c24 -48 24
-52 10 -52 -8 0 -25 11 -38 25 -19 20 -21 27 -10 40 17 21 23 19 38 -13z m356
-7 c7 -20 -18 -49 -38 -42 -25 10 -32 38 -12 53 20 14 42 9 50 -11z"/>
<path d="M1278 630 c-34 -34 -34 -40 -7 -74 52 -67 153 1 104 71 -24 34 -64
35 -97 3z m76 -22 c13 -21 -2 -51 -26 -56 -16 -3 -48 23 -48 38 0 15 32 41 48
38 8 -2 20 -11 26 -20z"/>
<path d="M743 620 c-13 -5 -23 -11 -23 -14 0 -16 14 -36 27 -36 8 0 12 -4 9
-9 -4 -5 -2 -11 3 -13 5 -2 11 -84 12 -185 l3 -182 -27 -23 c-33 -29 -34 -53
-4 -70 30 -17 191 -16 212 2 23 19 18 47 -13 66 -25 14 -29 22 -28 63 1 80 14
73 113 -66 53 -75 59 -78 213 -75 93 2 144 8 164 18 26 12 31 12 46 -1 27 -24
82 -29 118 -11 27 14 34 14 66 1 23 -10 43 -12 58 -6 13 4 103 7 200 5 98 -1
190 1 205 5 34 9 42 40 17 58 -16 12 -20 33 -25 126 -9 160 -30 196 -114 196
-28 0 -61 0 -75 0 -14 0 -38 2 -55 4 -17 2 -53 -8 -84 -23 -40 -18 -55 -22
-58 -12 -3 7 -22 21 -44 32 -129 66 -293 -45 -220 -149 l19 -27 -29 -39 c-16
-21 -29 -51 -29 -67 0 -17 -4 -27 -10 -23 -6 4 -8 11 -5 16 4 5 2 9 -3 9 -5 0
-9 58 -9 128 0 71 -3 134 -7 140 -11 17 -76 13 -111 -7 -37 -21 -43 -51 -15
-76 17 -16 20 -30 20 -110 0 -99 -4 -106 -51 -96 -22 5 -57 40 -118 117 -20
25 -22 52 -3 66 76 55 87 163 22 228 -43 43 -73 50 -212 49 -73 0 -143 -4
-155 -9z m343 -61 c29 -30 37 -45 38 -77 1 -49 -25 -89 -75 -115 -19 -10 -33
-22 -31 -28 4 -17 82 -121 120 -161 19 -20 48 -40 64 -43 50 -11 30 -25 -37
-25 l-65 0 -85 115 c-69 92 -91 115 -110 115 -25 0 -25 -1 -25 -93 0 -99 7
-117 47 -117 13 0 23 -4 23 -10 0 -6 -42 -10 -105 -10 -58 0 -105 4 -105 9 0
5 12 11 27 13 19 2 29 10 34 28 9 31 11 367 3 398 -4 15 -17 25 -35 29 -66 13
-20 18 126 13 l155 -5 36 -36z m582 -133 c14 -13 18 -41 20 -134 4 -143 6
-151 32 -127 32 29 36 8 5 -25 -35 -36 -79 -40 -95 -10 -11 21 -11 21 -43 1
-77 -47 -147 -18 -147 60 0 46 40 85 123 118 52 21 57 26 57 54 0 37 -25 67
-56 67 -31 0 -54 -26 -54 -60 0 -31 -25 -47 -46 -29 -38 31 6 97 73 108 49 9
111 -2 131 -23z m192 -2 l0 -24 39 26 c52 34 105 31 135 -9 18 -24 22 -47 26
-155 5 -122 6 -127 28 -130 12 -2 22 -8 22 -13 0 -5 -38 -9 -85 -9 -47 0 -85
4 -85 9 0 5 10 11 23 13 21 3 22 7 25 117 2 91 -1 118 -13 138 -18 27 -48 26
-93 -3 -22 -14 -23 -20 -20 -132 3 -113 4 -117 26 -120 12 -2 22 -8 22 -13 0
-12 -157 -12 -165 0 -3 5 5 11 17 13 23 3 23 6 23 133 0 127 0 130 -22 133
-36 5 -27 15 30 38 59 24 67 22 67 -12z m-510 -115 c0 -140 8 -179 35 -179 8
0 15 -4 15 -10 0 -6 -33 -10 -80 -10 -44 0 -80 4 -80 9 0 5 10 11 23 13 22 3
22 6 22 133 0 127 0 130 -22 133 -33 5 -28 17 15 35 74 30 72 34 72 -124z
m231 58 c-6 -6 -21 -12 -33 -14 l-22 -3 24 20 c23 20 52 18 31 -3z m177 -80
c2 -64 0 -77 -13 -77 -12 0 -15 15 -15 81 0 60 3 80 13 77 8 -3 13 -31 15 -81z
m195 61 c9 -36 11 -151 3 -175 -9 -27 -38 -30 -57 -7 -20 24 -14 175 8 192 25
18 40 15 46 -10z"/>
<path d="M880 470 l0 -100 38 0 c44 0 98 30 113 64 17 35 3 92 -28 116 -18 14
-40 20 -74 20 l-49 0 0 -100z m105 50 c7 -6 15 -22 18 -37 6 -33 -33 -76 -66
-71 -19 3 -22 10 -25 57 -2 35 1 57 9 62 15 9 46 4 64 -11z"/>
<path d="M1567 284 c-54 -28 -75 -64 -58 -101 15 -33 37 -38 77 -20 34 16 34
18 34 82 0 36 -1 65 -2 65 -2 -1 -25 -12 -51 -26z"/>
</g>
</svg>
